<?xml version="1.0" encoding="UTF-8" standalone="no"?>
<!DOCTYPE svg PUBLIC "-//W3C//DTD SVG 1.1//EN"
 "http://www.w3.org/Graphics/SVG/1.1/DTD/svg11.dtd">
<!-- Generated by graphviz version 2.44.1 (20200629.0846)
 -->
<!-- Title: g Pages: 1 -->
<svg width="406pt" height="551pt"
  viewBox="0.00 0.00 406.00 550.80" xmlns="http://www.w3.org/2000/svg">
<g id="graph0" class="graph" transform="scale(1 1) rotate(0) translate(4 546.8)">
<title>g</title>
<polygon fill="white" stroke="transparent" points="-4,4 -4,-546.8 402,-546.8 402,4 -4,4"/>
<g id="clust1" class="cluster">
<title>cluster_2131648745</title>
<polygon fill="#ececec" stroke="black" points="8,-8 8,-534.8 390,-534.8 390,-8 8,-8"/>
<text text-anchor="middle" x="64.98" y="-518.2" font-family="Times New Roman,serif" font-size="14.00">SpaceAdventures</text>
</g>
<!-- Asteroid2131648745 -->
<g id="node1" class="node">
<title>Asteroid2131648745</title>
<polygon fill="#ffffff" stroke="transparent" points="141.5,-150 44.5,-150 44.5,-28 141.5,-28 141.5,-150"/>
<text text-anchor="start" x="50" y="-132.4" font-family="Times New Roman,serif" font-size="14.00">(C)Asteroid</text>
<text text-anchor="start" x="49.76" y="-108.4" font-family="Times New Roman,serif" font-size="14.00">&#45; &#160;&#160;value: int [1]</text>
<text text-anchor="start" x="50" y="-84.4" font-family="Times New Roman,serif" font-size="14.00">+ destroy()</text>
<text text-anchor="start" x="50" y="-60.4" font-family="Times New Roman,serif" font-size="14.00">+ encounter()</text>
<text text-anchor="start" x="50" y="-36.4" font-family="Times New Roman,serif" font-size="14.00">+ extract(): int</text>
<polygon fill="black" stroke="black" points="45,-125 45,-125 142,-125 142,-125 45,-125"/>
<polygon fill="black" stroke="black" points="45,-101 45,-101 142,-101 142,-101 45,-101"/>
<polygon fill="none" stroke="black" points="44.5,-28 44.5,-150 141.5,-150 141.5,-28 44.5,-28"/>
</g>
<!-- Attacker2131648745 -->
<g id="node2" class="node">
<title>Attacker2131648745</title>
<polygon fill="#f1e5fd" stroke="transparent" points="382,-478 208,-478 208,-428 382,-428 382,-478"/>
<text text-anchor="start" x="213" y="-460.4" font-family="Times New Roman,serif" font-size="14.00">(I)Attacker</text>
<text text-anchor="start" x="212.93" y="-436.4" font-family="Times New Roman,serif" font-size="14.00">+ attack(target: GameObject)</text>
<polygon fill="black" stroke="black" points="208,-453 208,-453 382,-453 382,-453 208,-453"/>
<polygon fill="none" stroke="black" points="208,-428 208,-478 382,-478 382,-428 208,-428"/>
</g>
<!-- Enemy2131648745 -->
<g id="node3" class="node">
<title>Enemy2131648745</title>
<polygon fill="#ffffff" stroke="transparent" points="358,-162 184,-162 184,-16 358,-16 358,-162"/>
<text text-anchor="start" x="189" y="-144.4" font-family="Times New Roman,serif" font-size="14.00">(C)Enemy</text>
<text text-anchor="start" x="189" y="-120.4" font-family="Times New Roman,serif" font-size="14.00">&#45; &#160;&#160;attackPower: int [1]</text>
<text text-anchor="start" x="188.93" y="-96.4" font-family="Times New Roman,serif" font-size="14.00">+ attack(target: GameObject)</text>
<text text-anchor="start" x="189" y="-72.4" font-family="Times New Roman,serif" font-size="14.00"># destroy()</text>
<text text-anchor="start" x="189" y="-48.4" font-family="Times New Roman,serif" font-size="14.00">+ encounter()</text>
<text text-anchor="start" x="189" y="-24.4" font-family="Times New Roman,serif" font-size="14.00"># hurt(amount: double)</text>
<polygon fill="black" stroke="black" points="184,-137 184,-137 358,-137 358,-137 184,-137"/>
<polygon fill="black" stroke="black" points="184,-113 184,-113 358,-113 358,-113 184,-113"/>
<polygon fill="none" stroke="black" points="184,-16 184,-162 358,-162 358,-16 184,-16"/>
</g>
<!-- Attacker2131648745&#45;&gt;Enemy2131648745 -->
<g id="edge1" class="edge">
<title>Attacker2131648745&#45;&gt;Enemy2131648745</title>
<path fill="none" stroke="black" d="M321.38,-419.88C340.86,-396.17 364,-368 364,-368 364,-368 364,-198 364,-198 364,-198 350.09,-181.85 333.03,-162.04"/>
<polygon fill="none" stroke="black" points="318.6,-417.75 314.96,-427.7 324.01,-422.2 318.6,-417.75"/>
</g>
<!-- SpaceShip2131648745 -->
<g id="node6" class="node">
<title>SpaceShip2131648745</title>
<polygon fill="#ffffff" stroke="transparent" points="355,-368 181,-368 181,-198 355,-198 355,-368"/>
<text text-anchor="start" x="186" y="-350.4" font-family="Times New Roman,serif" font-size="14.00">(C)SpaceShip</text>
<text text-anchor="start" x="186" y="-326.4" font-family="Times New Roman,serif" font-size="14.00">&#45; &#160;&#160;attackPower: int [1]</text>
<text text-anchor="start" x="186" y="-302.4" font-family="Times New Roman,serif" font-size="14.00">&#45; &#160;&#160;name: String [0..1]</text>
<text text-anchor="start" x="186" y="-278.4" font-family="Times New Roman,serif" font-size="14.00">&#45; &#160;&#160;score: int [1]</text>
<text text-anchor="start" x="185.93" y="-254.4" font-family="Times New Roman,serif" font-size="14.00">+ attack(target: GameObject)</text>
<text text-anchor="start" x="186" y="-230.4" font-family="Times New Roman,serif" font-size="14.00"># destroy()</text>
<text text-anchor="start" x="186" y="-206.4" font-family="Times New Roman,serif" font-size="14.00"># hurt(amount: double)</text>
<polygon fill="black" stroke="black" points="181,-343 181,-343 355,-343 355,-343 181,-343"/>
<polygon fill="black" stroke="black" points="181,-271 181,-271 355,-271 355,-271 181,-271"/>
<polygon fill="none" stroke="black" points="181,-198 181,-368 355,-368 355,-198 181,-198"/>
</g>
<!-- Attacker2131648745&#45;&gt;SpaceShip2131648745 -->
<g id="edge2" class="edge">
<title>Attacker2131648745&#45;&gt;SpaceShip2131648745</title>
<path fill="none" stroke="black" d="M289.53,-417.99C287.21,-403.52 284.38,-385.94 281.56,-368.34"/>
<polygon fill="none" stroke="black" points="286.09,-418.61 291.13,-427.93 293,-417.5 286.09,-418.61"/>
</g>
<!-- GameObject2131648745 -->
<g id="node4" class="node">
<title>GameObject2131648745</title>
<polygon fill="#ffffff" stroke="transparent" points="189.5,-502 16.5,-502 16.5,-404 189.5,-404 189.5,-502"/>
<text text-anchor="start" x="22" y="-484.4" font-family="Times New Roman,serif" font-size="14.00">(C)GameObject</text>
<text text-anchor="start" x="21.65" y="-460.4" font-family="Times New Roman,serif" font-size="14.00"># &#160;&#160;remainingStrength: int [1]</text>
<text text-anchor="start" x="22" y="-436.4" font-family="Times New Roman,serif" font-size="14.00"># destroy()</text>
<text text-anchor="start" x="22" y="-412.4" font-family="Times New Roman,serif" font-size="14.00"># hurt(amount: double)</text>
<polygon fill="black" stroke="black" points="17,-477 17,-477 190,-477 190,-477 17,-477"/>
<polygon fill="black" stroke="black" points="17,-453 17,-453 190,-453 190,-453 17,-453"/>
<polygon fill="none" stroke="black" points="16.5,-404 16.5,-502 189.5,-502 189.5,-404 16.5,-404"/>
</g>
<!-- Obstacle2131648745 -->
<g id="node5" class="node">
<title>Obstacle2131648745</title>
<polygon fill="#ffffff" stroke="transparent" points="162.5,-332 23.5,-332 23.5,-234 162.5,-234 162.5,-332"/>
<text text-anchor="start" x="29" y="-314.4" font-family="Times New Roman,serif" font-size="14.00">(C)Obstacle</text>
<text text-anchor="start" x="29" y="-290.4" font-family="Times New Roman,serif" font-size="14.00"># destroy()</text>
<text text-anchor="start" x="29" y="-266.4" font-family="Times New Roman,serif" font-size="14.00">+ encounter()</text>
<text text-anchor="start" x="28.57" y="-242.4" font-family="Times New Roman,serif" font-size="14.00"># hurt(amount: double)</text>
<polygon fill="black" stroke="black" points="24,-307 24,-307 163,-307 163,-307 24,-307"/>
<polygon fill="none" stroke="black" points="23.5,-234 23.5,-332 162.5,-332 162.5,-234 23.5,-234"/>
</g>
<!-- GameObject2131648745&#45;&gt;Obstacle2131648745 -->
<g id="edge3" class="edge">
<title>GameObject2131648745&#45;&gt;Obstacle2131648745</title>
<path fill="none" stroke="black" d="M99.54,-393.87C98.34,-373.73 97.01,-351.39 95.87,-332.15"/>
<polygon fill="none" stroke="black" points="96.05,-394.08 100.13,-403.86 103.03,-393.67 96.05,-394.08"/>
</g>
<!-- GameObject2131648745&#45;&gt;SpaceShip2131648745 -->
<g id="edge4" class="edge">
<title>GameObject2131648745&#45;&gt;SpaceShip2131648745</title>
<path fill="none" stroke="black" d="M157.4,-396.61C166.43,-387.42 175.96,-377.71 185.5,-368"/>
<polygon fill="none" stroke="black" points="154.79,-394.27 150.28,-403.86 159.79,-399.18 154.79,-394.27"/>
</g>
<!-- Obstacle2131648745&#45;&gt;Asteroid2131648745 -->
<g id="edge5" class="edge">
<title>Obstacle2131648745&#45;&gt;Asteroid2131648745</title>
<path fill="none" stroke="black" d="M93,-223.48C93,-200.24 93,-173.52 93,-150.12"/>
<polygon fill="none" stroke="black" points="89.5,-223.55 93,-233.55 96.5,-223.55 89.5,-223.55"/>
</g>
<!-- Obstacle2131648745&#45;&gt;Enemy2131648745 -->
<g id="edge6" class="edge">
<title>Obstacle2131648745&#45;&gt;Enemy2131648745</title>
<path fill="none" stroke="black" d="M144.89,-226.03C163.43,-206.03 184.6,-183.2 204.22,-162.03"/>
<polygon fill="none" stroke="black" points="142.15,-223.84 137.92,-233.55 147.28,-228.6 142.15,-223.84"/>
</g>
</g>
</svg>
